<svg width="513" height="514" xmlns="http://www.w3.org/2000/svg" xmlns:xlink="http://www.w3.org/1999/xlink" overflow="hidden"><defs><clipPath id="clip0"><rect x="249" y="103" width="513" height="514"/></clipPath><clipPath id="clip1"><rect x="250" y="104" width="512" height="512"/></clipPath><clipPath id="clip2"><rect x="250" y="104" width="512" height="512"/></clipPath><clipPath id="clip3"><rect x="250" y="104" width="512" height="512"/></clipPath></defs><g clip-path="url(#clip0)" transform="translate(-249 -103)"><path d="M296 368C296 252.572 389.572 159 505 159 620.427 159 714 252.572 714 368 714 483.427 620.427 577 505 577 389.572 577 296 483.427 296 368Z" fill="#FFFFFF" fill-rule="evenodd"/><g clip-path="url(#clip1)"><g clip-path="url(#clip2)"><g clip-path="url(#clip3)"><path d="M506 104C364.5 104 250 218.5 250 360 250 501.5 364.5 616 506 616 647.5 616 762 501.5 762 360 762 218.5 647.5 104 506 104ZM448.3 481.9 448.3 481.9 448.3 481.9 358.9 438.1C358 437.2 356.1 435.3 356.1 433.4L356.1 230.6 447.3 276.2 447.3 481.9 448.3 481.9ZM459.5 385.1 459.5 293 541.4 426.1 459.5 385.1ZM495.8 331.1 559.1 229.6 651.3 276.1 556.3 429.7 495.8 331.1ZM654 481.9 654 481.9 654 481.9 564.6 438.1 654 293 654 481.9Z"/></g></g></g></g></svg>